# xmcd
#
# Track frame offsets: 
#        150
#        14940
#        24435
#        32605
#        44872
#        59107
#        75502
#        89427
#        99440
#        111070
#        125242
#        135662
#
# Disc length: 1988 seconds
#
# Revision: 0
# Processed by: cddbd v1.5.1PL2 Copyright (c) Steve Scherf et al.
# Submitted via: ExactAudioCopy v0.95b4
#
DISCID=aa07c20c
DTITLE=Трофим - С Добрым Утром!
DYEAR=1996
DGENRE=Other
TTITLE0=С Добрым Утром
TTITLE1=Аты-Баты
TTITLE2=Поворот
TTITLE3=Бьюсь Как Рыба
TTITLE4=В Такую Тьму
TTITLE5=Скажи Мне Милая
TTITLE6=У Времени Реки
TTITLE7='Вот И Всё' - сказал Мудрец
TTITLE8=ТВ-новости
TTITLE9=Короче, Дело К Ночи
TTITLE10=Летним Вечером
TTITLE11=Как Недолог Век
EXTD=
EXTT0=
EXTT1=
EXTT2=
EXTT3=
EXTT4=
EXTT5=
EXTT6=
EXTT7=
EXTT8=
EXTT9=
EXTT10=
EXTT11=
PLAYORDER=
